<?xml version="1.0" encoding="utf-8"?>
<!-- Designed by Vexels.com - 2020 All Rights Reserved - https://vexels.com/terms-and-conditions/  -->
<svg version="1.1" id="Layer_1" xmlns="http://www.w3.org/2000/svg" xmlns:xlink="http://www.w3.org/1999/xlink" x="0px" y="0px"
	 viewBox="0 0 1200 1200" enable-background="new 0 0 1200 1200" xml:space="preserve">
<g>
	<ellipse fill="#D3E4ED" cx="581.696" cy="956.751" rx="372.926" ry="193.249"/>
	<g>
		<path fill="#E8E5DE" d="M831.26,957.799c0.037-0.195,0.066-0.39,0.083-0.587l60.878-432.494l-96.534,5.674l-524.514-22.598
			l60.832,436.189l0.045,0.011c0.106,0.946,0.603,1.854,1.543,2.4l240.577,139.757c11.879,6.9,26.538,6.934,38.447,0.087
			l215.931-124.631C830.073,960.729,830.969,959.314,831.26,957.799L831.26,957.799L831.26,957.799z"/>
		<g>
			<path fill="#969593" d="M273.148,504.601l285.229-164.323c6.754-3.88,15.061-3.872,21.808,0.019L888.714,518.25
				c4.678,2.698,4.673,9.451-0.009,12.142L620.153,685.396c-14.812,8.515-33.044,8.474-47.817-0.108L273.131,511.472
				C270.491,509.939,270.5,506.122,273.148,504.601z"/>
		</g>
		<g>
			<path fill="#31353E" d="M597.197,1076.077c-0.095,0-0.194-0.827-0.307-2.519c-0.113-1.691-0.24-4.244-0.39-7.694
				c-0.269-6.907-0.679-17.392-1.239-31.734c-1.05-28.692-2.804-72.819-4.661-134.561c-1.857-61.742-2.399-105.876-1.49-134.582
				c0.868-28.705,3.103-41.981,5.721-41.999s5.031,13.227,6.283,41.918c1.294,28.691,1.344,72.828,0.314,134.59
				c-1.03,61.761-2.192,105.907-2.858,134.611c-0.367,14.349-0.636,24.838-0.813,31.748c-0.104,3.452-0.197,6.007-0.287,7.699
				C597.38,1075.247,597.292,1076.076,597.197,1076.077z"/>
		</g>
		<g>
			<path fill="#31353E" d="M331.405,506.482l231.373-133.297c5.478-3.147,12.218-3.141,17.691,0.015l250.274,144.353
				c3.794,2.189,3.791,7.666-0.007,9.849L612.89,653.14c-12.015,6.907-26.804,6.874-38.788-0.088L331.391,512.056
				C329.25,510.812,329.257,507.716,331.405,506.482z"/>
		</g>
	</g>
	<g>
		<path fill="#3DB29F" d="M984.935,434.568c-23.133-33.069-52.149-62.299-86.412-83.624c-30.081-18.722-64.287-31.203-99.488-34.736
			c25.938-48.242,45.577-99.841,61.932-152.188c10.956-35.065,21.075-71.695,44.493-99.999
			c-54.869,4.392-111.59,10.125-159.423,37.364c-41.011,23.355-72.188,60.818-97.867,100.415
			c-6.653,10.26-13.011,20.753-18.925,31.482c-1.628-1.401-3.194-2.823-4.634-4.296c-29.251-29.935-50.56-67.886-62.026-108.057
			c-6.542-22.92-9.891-46.768-9.641-70.611c-7.115-1.729-13.727,3.937-18.714,9.298c-27.489,29.548-49.992,64.043-63.666,102.014
			c-6.473,17.973-10.917,36.739-13.028,55.729c-4.871-0.04-9.75,0.168-14.591,0.557c-40.228,3.233-79.099,18.513-112.203,41.597
			c-33.104,23.083-60.556,53.787-81.932,88.018c-3.878,6.211-7.629,14.069-4.107,20.489c22.956-6.445,46.854-9.418,70.687-9.065
			c14.642,0.216,29.335,1.677,43.818,4.357c-29.874,35.718-49.225,79.783-57.861,125.565c-8.913,47.254-6.661,96.279,3.703,143.236
			c1.88,8.52,5.244,18.335,13.595,20.86c14.157-24.633,32.012-47.096,52.585-66.676c25.649-24.41,55.734-44.65,88.289-59.003
			c0.019,2.361,0.063,4.722,0.159,7.081c1.88,46.484,18.041,92.221,13.906,138.559c-3.209,35.965-18.446,69.641-34.249,102.107
			c63.125-19.922,114.393-66.023,159.495-114.475c22.334-23.992,43.85-49.121,60.984-76.974c0.022,0.023,0.045,0.047,0.067,0.07
			c28.165,30.958,48.108,69.645,58.135,110.199c5.721,23.139,8.217,47.091,7.118,70.91c7.049,1.982,13.858-3.445,19.034-8.625
			c28.525-28.549,52.243-62.221,67.261-99.68c15.019-37.459,21.134-78.776,15.207-118.695c-2.343-15.78-6.643-31.526-15.094-45.057
			c-1.838-2.944-3.853-5.738-6.023-8.388c34.254-20.399,73.837-32.215,113.524-34.877c23.782-1.595,47.802,0.126,71.064,5.365
			C993.288,448.22,989.132,440.568,984.935,434.568z"/>
		<g>
			<path fill="#E8E5DE" d="M764.794,590.295c-0.187-0.037,0.008-2.228,0.619-6.723c0.428-4.516,1.284-11.372,1.213-20.788
				c0.052-2.351-0.134-4.86-0.191-7.527c-0.111-2.667-0.403-5.484-0.626-8.467c-0.723-5.938-1.583-12.531-3.306-19.642
				c-3.354-14.181-9.121-30.801-20.039-47.826c-10.944-17.008-23.662-29.163-35.165-38.109c-5.75-4.524-11.389-8.047-16.489-11.173
				c-2.62-1.442-5.062-2.879-7.44-4.089c-2.402-1.162-4.606-2.373-6.766-3.303c-8.535-3.98-15.125-6.051-19.411-7.54
				c-4.343-1.313-6.415-2.047-6.372-2.232c0.044-0.185,2.201,0.194,6.667,1.198c4.407,1.18,11.161,2.988,19.909,6.789
				c2.213,0.886,4.473,2.058,6.934,3.186c2.437,1.176,4.94,2.586,7.624,4.008c5.227,3.085,11.002,6.593,16.89,11.135
				c11.778,8.982,24.788,21.303,35.944,38.639c11.128,17.354,16.925,34.308,20.197,48.755c1.683,7.243,2.472,13.954,3.105,19.99
				c0.177,3.032,0.419,5.894,0.475,8.6c0.003,2.707,0.129,5.25,0.015,7.63c-0.181,9.536-1.344,16.43-2.103,20.929
				C765.533,588.213,764.981,590.332,764.794,590.295z"/>
		</g>
		<g>
			<path fill="#E8E5DE" d="M512.163,678.482c-0.144-0.125,1.601-2.502,5.258-7.384c1.889-2.393,3.982-5.63,6.621-9.463
				c0.655-0.961,1.338-1.965,2.051-3.011c0.665-1.079,1.357-2.202,2.076-3.369c1.425-2.342,3.004-4.827,4.601-7.545
				c1.525-2.76,3.152-5.704,4.884-8.838c1.688-3.151,3.296-6.592,5.09-10.163c1.768-3.587,3.355-7.509,5.173-11.544
				c1.699-4.093,3.344-8.448,5.076-12.989c0.781-2.303,1.58-4.66,2.397-7.07c0.408-1.202,0.821-2.418,1.239-3.647
				c0.363-1.247,0.731-2.508,1.102-3.783c0.741-2.543,1.498-5.14,2.272-7.792c0.66-2.68,1.333-5.416,2.02-8.208
				c2.564-11.191,4.904-23.36,6.142-36.573c1.274-13.203,1.526-25.473,1.27-36.778c-0.38-11.333-1.227-22.228-1.139-32.609
				c0.044-10.368,1.071-20.237,3.364-29.037c2.394-9.032,6.135-16.521,10.358-22.529c4.212-6.02,9.029-10.481,13.587-13.559
				c4.571-3.086,8.905-4.778,12.457-5.46c1.746-0.413,3.339-0.498,4.689-0.486c1.335-0.029,2.472,0.168,3.388,0.457
				c1.825,0.55,2.743,1.39,2.952,2.43c0.209,1.041-0.295,2.241-1.374,3.527c-0.544,0.628-1.228,1.294-2.006,2.103
				c-0.791,0.766-1.715,1.543-2.694,2.527c-2.01,1.823-4.357,4.133-6.862,7.159c-2.492,3.029-5.201,6.77-7.67,11.571
				c-2.472,4.777-4.778,10.558-6.273,17.253c-1.509,6.939-2.38,15.025-2.643,24.428c-0.313,9.402,0.011,20.104-0.36,32.27
				c-0.506,12.192-1.842,25.302-4.452,39.166c-2.573,13.874-6.297,26.429-10.177,37.815c-1.019,2.83-2.017,5.603-2.994,8.319
				c-1.095,2.668-2.167,5.281-3.216,7.839c-0.526,1.275-1.047,2.537-1.561,3.784c-0.569,1.225-1.132,2.437-1.688,3.635
				c-1.113,2.391-2.202,4.728-3.266,7.013c-2.297,4.488-4.477,8.762-6.678,12.756c-2.321,3.937-4.378,7.741-6.584,11.201
				c-2.232,3.445-4.245,6.748-6.306,9.759c-2.095,2.982-4.064,5.784-5.909,8.41c-1.909,2.576-3.77,4.919-5.449,7.124
				c-0.845,1.097-1.658,2.153-2.439,3.168c-0.826,0.979-1.618,1.919-2.377,2.818c-3.05,3.583-5.462,6.598-7.61,8.801
				C514.325,676.477,512.307,678.606,512.163,678.482z"/>
		</g>
		<g>
			<path fill="#E8E5DE" d="M349.097,523.935c-0.18-0.061,0.681-2.901,2.551-8.833c0.484-1.476,0.962-3.176,1.632-5.021
				c0.719-1.828,1.513-3.848,2.384-6.063c0.899-2.206,1.762-4.667,2.913-7.231c1.197-2.548,2.486-5.29,3.868-8.229
				c1.306-2.992,3.021-6.007,4.81-9.248c1.793-3.238,3.607-6.741,5.927-10.195c4.361-7.093,9.645-14.721,16.077-22.684
				c3.267-3.937,6.614-8.151,10.557-12.147c1.933-2.035,3.87-4.163,5.931-6.251c2.141-2.01,4.326-4.061,6.557-6.154
				c1.12-1.047,2.251-2.105,3.394-3.174c1.204-0.996,2.421-2.003,3.649-3.019c2.471-2.028,4.99-4.096,7.558-6.204
				c5.413-3.839,10.871-8.132,17.061-11.786c6.001-3.979,12.196-7.122,18.108-10.301c2.987-1.522,6.031-2.788,8.966-4.145
				c1.477-0.663,2.939-1.319,4.387-1.969c1.446-0.658,2.948-1.131,4.399-1.695c2.927-1.073,5.795-2.125,8.604-3.155
				c2.817-1.017,5.678-1.702,8.431-2.53c2.772-0.762,5.461-1.609,8.146-2.228c2.687-0.614,5.314-1.218,7.914-1.678
				c20.752-3.957,38.451-3.483,51.959-0.986c6.763,1.247,12.519,2.866,17.234,4.75c2.372,0.878,4.474,1.86,6.338,2.823
				c1.877,0.915,3.492,1.895,4.878,2.841c2.8,1.815,4.639,3.613,5.704,5.091c1.065,1.482,1.339,2.694,0.916,3.643
				c-0.423,0.95-1.522,1.594-3.26,1.914c-1.74,0.324-4.096,0.275-7.165,0.116c-1.5-0.129-3.195-0.275-5.089-0.439
				c-1.867-0.193-3.903-0.438-6.144-0.625c-4.445-0.5-9.661-0.918-15.661-1.246c-11.987-0.641-27.332-0.482-46.046,2.634
				c-2.342,0.356-4.722,0.837-7.162,1.305c-2.439,0.473-4.891,1.155-7.427,1.728c-2.519,0.64-5.144,1.114-7.744,1.903
				c-2.604,0.787-5.262,1.59-7.974,2.41c-1.351,0.43-2.753,0.762-4.106,1.278c-1.359,0.504-2.73,1.013-4.116,1.527
				c-2.762,1.054-5.639,1.997-8.481,3.183c-5.623,2.507-11.583,4.914-17.433,8.117c-6.034,2.875-11.427,6.407-16.838,9.507
				c-2.584,1.74-5.12,3.448-7.606,5.122c-1.248,0.84-2.483,1.672-3.706,2.495c-1.169,0.897-2.326,1.785-3.472,2.664
				c-2.302,1.76-4.557,3.484-6.767,5.174c-2.142,1.772-4.171,3.592-6.203,5.33c-4.143,3.402-7.722,7.063-11.241,10.49
				c-6.938,6.941-12.802,13.717-17.737,20.112c-2.608,3.105-4.708,6.295-6.781,9.254c-2.069,2.962-4.056,5.732-5.621,8.506
				c-1.646,2.735-3.182,5.286-4.609,7.658c-1.383,2.399-2.465,4.717-3.567,6.798c-1.076,2.098-2.058,4.011-2.946,5.743
				c-0.842,1.754-1.477,3.375-2.105,4.785C350.49,521.266,349.277,523.997,349.097,523.935z"/>
		</g>
		<g>
			<path fill="#E8E5DE" d="M493.033,249.522c-0.021-0.19,1.589-0.516,4.988-0.987c3.402-0.344,8.615-0.839,15.756-0.526
				c7.13,0.266,16.207,1.277,26.975,4.18c10.714,2.947,23.22,7.762,36.084,16.324c12.853,8.577,22.11,18.267,28.954,27.021
				c6.824,8.82,11.252,16.809,14.241,23.287c3.038,6.47,4.587,11.472,5.579,14.744c0.874,3.317,1.193,4.93,1.009,4.983
				c-0.183,0.053-0.85-1.456-2.029-4.639c-1.295-3.139-3.103-7.974-6.317-14.234c-3.166-6.27-7.688-14.008-14.485-22.567
				c-6.818-8.496-15.926-17.914-28.486-26.296c-12.57-8.366-24.769-13.147-35.234-16.169c-10.516-2.979-19.398-4.174-26.404-4.683
				c-7.015-0.557-12.173-0.365-15.569-0.352C494.705,249.746,493.055,249.711,493.033,249.522z"/>
		</g>
		<g>
			<path fill="#E8E5DE" d="M264.552,335.071c-0.119-0.149,1.179-1.384,4.024-3.795c1.428-1.197,3.217-2.722,5.455-4.489
				c2.281-1.715,4.963-3.73,8.06-6.058c3.141-2.272,6.794-4.723,10.866-7.522c2.087-1.322,4.287-2.717,6.604-4.184
				c1.161-0.73,2.351-1.479,3.57-2.245c1.244-0.726,2.518-1.47,3.822-2.231c10.399-6.139,23.068-12.882,38.426-19.454
				c15.358-6.574,28.983-11.084,40.602-14.369c1.451-0.418,2.868-0.826,4.253-1.225c1.397-0.353,2.759-0.697,4.089-1.033
				c2.661-0.663,5.189-1.292,7.586-1.889c4.835-1.014,9.131-1.965,12.944-2.668c3.823-0.634,7.132-1.182,9.947-1.649
				c2.823-0.399,5.162-0.64,7.014-0.847c3.708-0.394,5.498-0.48,5.523-0.291c0.025,0.189-1.717,0.636-5.364,1.355
				c-1.828,0.345-4.125,0.779-6.913,1.306c-2.78,0.578-6.048,1.257-9.822,2.042c-3.766,0.821-8.012,1.877-12.792,2.98
				c-2.37,0.635-4.87,1.305-7.501,2.01c-1.315,0.353-2.664,0.714-4.045,1.084c-1.369,0.413-2.772,0.836-4.207,1.269
				c-11.497,3.395-24.988,7.941-40.226,14.464c-15.239,6.521-27.842,13.142-38.236,19.115c-1.304,0.74-2.579,1.462-3.823,2.167
				c-1.222,0.744-2.414,1.469-3.577,2.178c-2.327,1.417-4.537,2.763-6.633,4.039c-4.099,2.697-7.793,5.039-10.988,7.197
				c-3.174,2.189-5.921,4.084-8.258,5.696c-2.305,1.653-4.206,3.016-5.717,4.1C266.198,334.269,264.672,335.22,264.552,335.071z"/>
		</g>
		<g>
			<path fill="#E8E5DE" d="M587.057,333.461c0.286-1.05,1.013-1.913,2.249-2.45c1.243-0.563,2.976-0.731,5.211-0.393
				c1.112,0.178,2.331,0.523,3.679,0.972c1.309,0.531,2.781,1.108,4.273,1.985c1.524,0.819,3.093,1.879,4.745,3.09
				c0.796,0.644,1.623,1.314,2.483,2.011c0.809,0.75,1.649,1.528,2.52,2.335c0.815,0.857,1.6,1.684,2.357,2.48
				c0.705,0.837,1.384,1.641,2.036,2.415c1.238,1.601,2.332,3.084,3.235,4.51c0.951,1.383,1.658,2.749,2.352,3.913
				c0.623,1.222,1.184,2.289,1.632,3.254c0.877,1.943,1.448,3.368,1.738,4.354c0.31,0.972,0.394,1.466,0.229,1.56
				c-0.165,0.095-0.569-0.219-1.276-0.93c-0.684-0.724-1.734-1.807-3.18-3.227c-0.744-0.686-1.585-1.461-2.529-2.329
				c-1.005-0.806-2.029-1.76-3.283-2.674c-1.205-0.958-2.586-1.915-4.062-2.943c-0.754-0.488-1.538-0.996-2.353-1.525
				c-0.826-0.494-1.683-1.007-2.572-1.539c-0.899-0.497-1.765-0.976-2.601-1.438c-0.84-0.436-1.648-0.855-2.425-1.258
				c-1.554-0.768-2.983-1.474-4.292-2.121c-1.281-0.686-2.487-1.208-3.51-1.831c-1.059-0.539-1.967-1.119-2.765-1.666
				c-1.601-1.073-2.701-2.186-3.356-3.267C586.949,335.646,586.771,334.511,587.057,333.461z"/>
		</g>
		<g>
			<path fill="#E8E5DE" d="M679.667,323.859c0.036,0.187-0.411,0.481-1.362,0.877c-0.474,0.205-1.082,0.407-1.805,0.686
				c-0.713,0.314-1.553,0.664-2.525,1.05c-0.959,0.42-2.014,0.969-3.216,1.525c-1.136,0.695-2.48,1.305-3.803,2.248
				c-2.721,1.744-5.792,4.095-8.831,7.382c-3.041,3.285-5.147,6.529-6.675,9.377c-0.838,1.393-1.341,2.78-1.946,3.966
				c-0.462,1.241-0.927,2.336-1.272,3.324c-0.31,0.998-0.593,1.863-0.851,2.598c-0.221,0.743-0.376,1.364-0.544,1.853
				c-0.322,0.979-0.579,1.448-0.769,1.426c-0.19-0.021-0.293-0.531-0.294-1.59c0.006-0.528,0.01-1.199,0.094-2.002
				c0.12-0.796,0.28-1.733,0.484-2.816c0.238-1.073,0.615-2.265,1.013-3.614c0.539-1.292,1.001-2.797,1.821-4.31
				c1.495-3.089,3.676-6.594,6.911-10.089c3.234-3.497,6.56-5.943,9.524-7.672c1.444-0.936,2.91-1.513,4.155-2.15
				c1.315-0.5,2.473-0.968,3.525-1.29c1.065-0.287,1.987-0.519,2.771-0.7c0.794-0.146,1.463-0.202,1.989-0.249
				C679.114,323.608,679.631,323.672,679.667,323.859z"/>
		</g>
		<g>
			<path fill="#E8E5DE" d="M715.571,401.763c-0.367,0.288-1.961-1.768-6.214-5.171c-4.231-3.344-11.492-7.935-22.974-10.587
				c-5.736-1.3-10.798-1.804-15.073-2.151c-4.281-0.328-7.796-0.468-10.57-0.609c-5.551-0.263-8.133-0.556-8.135-0.946
				c-0.001-0.373,2.561-0.771,8.145-1.008c2.792-0.109,6.345-0.172,10.717,0.021c4.365,0.214,9.574,0.649,15.531,1.998
				c11.966,2.754,19.545,7.905,23.636,11.802C714.764,399.082,715.815,401.603,715.571,401.763z"/>
		</g>
		<g>
			<path fill="#E8E5DE" d="M888.57,83.874c0.089,0.162-2.173,1.659-6.814,4.815c-2.322,1.573-5.145,3.719-8.597,6.243
				c-1.712,1.283-3.522,2.759-5.499,4.314c-1.987,1.541-4.071,3.269-6.267,5.164c-2.22,1.86-4.57,3.858-6.984,6.088
				c-2.444,2.187-5.016,4.516-7.633,7.091c-5.349,5.008-10.929,10.917-16.967,17.431c-5.92,6.644-12.168,14.038-18.567,22.334
				c-6.345,8.341-12.813,17.593-19.214,27.856c-6.385,10.241-11.731,20.138-16.838,29.567c-5.089,9.405-9.932,18.205-14.791,26.158
				c-4.805,7.975-9.798,15.062-14.639,21.224c-2.486,3.058-4.859,5.918-7.345,8.475c-2.358,2.622-4.838,4.91-7.175,7.009
				c-4.709,4.171-9.167,7.397-13.222,9.715c-1.001,0.593-1.955,1.155-2.88,1.665c-0.974,0.444-1.901,0.866-2.782,1.268
				c-1.769,0.775-3.366,1.413-4.796,1.921c-3.008,0.781-5.153,1.419-7.17,0.661c-0.932-0.239-1.705-0.6-2.16-0.735
				c-0.454-0.133-0.621-0.092-0.643-0.134c-0.022-0.042,0.103-0.169,0.24-0.64c0.135-0.473,0.251-1.343,0.514-2.265
				c0.357-2.142,1.857-3.506,3.665-5.598c0.874-1.093,1.88-2.264,3.02-3.51c0.573-0.609,1.176-1.25,1.81-1.924
				c0.597-0.712,1.223-1.458,1.878-2.238c2.675-3.006,5.682-6.619,8.962-10.941c1.623-2.185,3.393-4.448,5.115-7.051
				c1.812-2.491,3.583-5.303,5.489-8.238c3.755-5.953,7.797-12.673,12.105-20.412c4.331-7.714,9.004-16.329,14.401-25.781
				c5.378-9.423,11.626-19.783,19.343-30.316c7.678-10.52,15.579-19.673,23.315-27.681c7.784-7.971,15.423-14.77,22.605-20.705
				c7.298-5.811,14.052-10.858,20.407-15.011c1.583-1.045,3.095-2.091,4.609-3.049c1.523-0.941,3.002-1.855,4.438-2.742
				c2.842-1.807,5.6-3.367,8.177-4.827c2.563-1.48,4.966-2.826,7.255-3.986c2.274-1.181,4.342-2.312,6.281-3.282
				c3.922-1.87,7.077-3.505,9.664-4.651C886.036,84.843,888.482,83.712,888.57,83.874z"/>
		</g>
		<g>
			<path fill="#E8E5DE" d="M533.087,214.189c-0.368,0.339-0.899,0.469-1.619,0.339c-0.731-0.121-1.63-0.52-2.655-1.28
				c-2.058-1.486-4.597-4.539-6.503-9.259c-1.944-4.694-3.088-10.929-3.557-18.127c-0.51-7.17-0.673-15.703-0.289-25.621
				c0.414-9.918,1.224-18.382,2.108-25.485c0.885-7.105,1.848-12.853,2.662-17.365c0.815-4.512,1.504-7.79,2.019-9.936
				c0.514-2.146,0.831-3.164,1.02-3.138c0.189,0.026,0.233,1.094,0.178,3.293c-0.064,2.209-0.161,5.534-0.293,10.079
				c-0.221,9.092-0.31,23.084,0.932,42.45c0.642,9.681,1.413,17.935,2.018,24.901c0.569,6.937,1.217,12.195,2.043,16.192
				c0.803,3.995,1.671,6.773,2.16,8.836C533.78,212.134,533.853,213.482,533.087,214.189z"/>
		</g>
		<g>
			<path fill="#E8E5DE" d="M977.746,434.309c-0.142,0.127-2.353-1.976-6.859-6.384c-2.335-2.121-5.29-4.779-8.957-7.888
				c-1.879-1.5-3.924-3.132-6.138-4.898c-2.239-1.729-4.755-3.454-7.385-5.372c-2.634-1.915-5.627-3.708-8.701-5.748
				c-3.129-1.962-6.544-3.89-10.116-5.964c-7.3-3.9-15.467-8.063-24.82-11.829c-18.645-7.583-41.62-14.499-69.032-18.259
				c-27.453-3.748-51.281-3.792-71.347-3.405c-10.041,0.184-19.168,0.686-27.406,1.023c-8.258,0.413-15.612,0.78-22.096,1.104
				c-6.503,0.289-12.154,0.485-16.985,0.505c-4.83,0.044-8.838-0.079-12.053-0.373c-6.425-0.542-9.675-1.81-9.931-3.584
				c-0.256-1.774,2.51-3.882,8.613-6.17c3.056-1.122,6.947-2.28,11.717-3.43c4.775-1.128,10.426-2.256,17.005-3.272
				c6.578-1.025,14.087-1.916,22.554-2.648c8.478-0.632,17.905-1.199,28.336-1.207c20.819-0.045,45.733,1.343,74.075,7.314
				c28.375,5.999,51.587,15.268,70.085,24.774c9.281,4.732,17.286,9.768,24.375,14.422c3.469,2.453,6.767,4.73,9.775,7.015
				c2.954,2.363,5.818,4.45,8.324,6.634c2.502,2.188,4.887,4.155,6.999,6.103c2.079,1.979,4,3.808,5.765,5.489
				c3.427,3.461,6.161,6.391,8.301,8.733C975.958,431.841,977.888,434.183,977.746,434.309z"/>
		</g>
		<g>
			<path fill="#31353E" d="M578.784,322.873c-0.27,1.048-2.541,1.587-6.882,1.485c-2.175-0.033-4.852-0.303-8.091-0.609
				c-3.258-0.212-7.056-0.571-11.413-1.09c-4.372-0.423-9.343-0.74-14.889-1.31c-2.786-0.146-5.725-0.299-8.818-0.461
				c-1.545-0.091-3.13-0.184-4.753-0.28c-1.626-0.022-3.292-0.045-4.996-0.069c-1.705-0.032-3.449-0.065-5.233-0.099
				c-1.785-0.057-3.609-0.085-5.473,0.001c-3.731,0.096-7.622,0.197-11.676,0.301c-4.051,0.276-8.265,0.564-12.644,0.862
				c-4.367,0.499-8.9,1.017-13.6,1.554c-4.676,0.767-9.185,1.506-13.53,2.219c-4.313,0.92-8.463,1.806-12.453,2.657
				c-3.96,0.983-7.737,2.037-11.383,2.983c-1.832,0.447-3.59,0.993-5.3,1.559c-1.718,0.548-3.397,1.084-5.039,1.607
				c-1.644,0.523-3.251,1.034-4.82,1.532c-1.541,0.575-3.046,1.136-4.514,1.683c-2.94,1.102-5.732,2.149-8.38,3.142
				c-5.17,2.275-9.844,4.204-13.869,6.104c-3.989,1.985-7.443,3.703-10.38,5.165c-2.896,1.541-5.226,2.917-7.117,3.941
				c-3.765,2.081-5.619,3.027-5.725,2.868c-0.105-0.159,1.544-1.409,5.074-3.902c1.775-1.23,3.98-2.839,6.747-4.652
				c2.826-1.729,6.149-3.762,9.987-6.111c3.895-2.261,8.442-4.6,13.508-7.336c2.603-1.223,5.349-2.513,8.239-3.871
				c1.451-0.675,2.937-1.366,4.461-2.075c1.556-0.632,3.149-1.279,4.78-1.941c1.634-0.662,3.306-1.339,5.016-2.032
				c1.705-0.71,3.462-1.402,5.295-1.997c3.649-1.242,7.444-2.601,11.439-3.893c4.041-1.151,8.244-2.348,12.612-3.592
				c4.435-1.012,9.037-2.061,13.809-3.15c4.832-0.823,9.492-1.617,13.982-2.382c4.531-0.518,8.89-1.016,13.081-1.495
				c4.206-0.324,8.256-0.503,12.137-0.724c1.94-0.139,3.842-0.155,5.702-0.132c1.861,0.008,3.68,0.016,5.458,0.024
				c1.779,0.016,3.516,0.032,5.212,0.048c1.693,0.107,3.346,0.211,4.959,0.313c3.222,0.24,6.282,0.469,9.184,0.686
				c5.769,0.79,10.91,1.464,15.387,2.362c4.464,0.994,8.301,1.946,11.532,2.847c3.214,0.995,5.801,2.05,7.83,2.938
				C577.293,320.366,579.055,321.825,578.784,322.873z"/>
		</g>
		<g>
			<path fill="#31353E" d="M646.828,324.954c-0.095,0.005-0.202-0.201-0.973-0.592c-0.212-0.099-0.446-0.208-0.704-0.328
				c-0.218-0.125-0.456-0.262-0.714-0.41c-0.501-0.3-1.323-0.64-1.883-1.049c-1.272-0.81-1.756-1.889-2.49-3.186
				c-0.685-1.297-1.339-2.826-1.941-4.599c-1.221-3.536-2.251-8.026-3.059-13.477c-0.386-2.735-0.761-5.691-1.032-8.923
				c-0.322-3.211-0.561-6.682-0.806-10.419c-0.248-3.738-0.478-7.21-0.692-10.423c-0.253-3.209-0.417-6.215-0.695-8.948
				c-0.175-2.777-0.545-5.243-0.753-7.558c-0.332-2.292-0.627-4.334-0.888-6.136c-0.353-1.807-0.66-3.374-0.921-4.709
				c-0.299-1.331-0.617-2.404-0.84-3.277c-0.462-1.739-0.708-2.581-0.55-2.675c0.159-0.095,0.745,0.529,2.014,1.84
				c0.628,0.661,1.451,1.482,2.407,2.521c0.928,1.076,2.018,2.339,3.275,3.796c1.234,1.495,2.523,3.267,4.023,5.277
				c1.341,2.061,2.959,4.36,4.385,7.032c1.52,2.653,2.948,5.644,4.372,8.965c0.653,1.667,1.352,3.41,1.991,5.243
				c0.606,1.83,1.206,3.748,1.78,5.745c0.508,1.997,1.011,3.933,1.409,5.805c0.372,1.868,0.7,3.673,0.979,5.414
				c0.49,3.469,0.802,6.676,0.892,9.599c0.217,5.856-0.247,10.603-1.025,14.346c-0.397,1.867-0.873,3.488-1.408,4.87
				c-0.59,1.382-0.965,2.51-2.147,3.451c-0.515,0.467-1.298,0.889-1.766,1.24c-0.242,0.174-0.464,0.334-0.669,0.481
				c-0.244,0.146-0.466,0.278-0.667,0.398C647.008,324.734,646.922,324.949,646.828,324.954z"/>
		</g>
		<g>
			<path fill="#31353E" d="M691.006,332.789c-0.449-0.858,0.005-2.111,1.524-3.731c0.762-0.804,1.777-1.725,3.097-2.685
				c1.334-0.928,2.956-1.932,4.876-3.008c1.934-1.042,4.205-2.062,6.77-3.178c2.619-0.964,5.499-2.14,8.797-3.037
				c3.264-1.009,6.904-1.847,10.87-2.676c1.996-0.34,4.073-0.693,6.231-1.061c2.171-0.261,4.423-0.53,6.759-0.811
				c2.342-0.166,4.601-0.327,6.778-0.481c2.177-0.054,4.272-0.106,6.286-0.156c4.028,0.04,7.717,0.123,11.084,0.405
				c3.367,0.165,6.403,0.644,9.131,0.918c2.721,0.435,5.138,0.787,7.253,1.186c2.102,0.442,3.922,0.825,5.473,1.15
				c1.537,0.367,2.791,0.727,3.786,1.002c1.987,0.564,2.921,0.906,2.886,1.093c-0.035,0.187-1.039,0.205-3.086,0.093
				c-1.025-0.065-2.308-0.148-3.862-0.247c-1.559-0.059-3.39-0.128-5.503-0.207c-2.112-0.05-4.51-0.015-7.185-0.03
				c-2.684,0.146-5.646,0.122-8.901,0.433c-3.254,0.194-6.791,0.609-10.615,1.065c-1.903,0.286-3.883,0.584-5.941,0.893
				c-2.04,0.381-4.157,0.776-6.352,1.185c-2.174,0.486-4.27,0.954-6.29,1.406c-2,0.514-3.924,1.009-5.774,1.484
				c-3.67,1.052-7.04,1.995-10.087,2.992c-3.081,0.885-5.794,1.932-8.318,2.661c-2.468,0.882-4.712,1.563-6.693,2.177
				c-1.966,0.649-3.708,1.136-5.233,1.477c-1.509,0.373-2.783,0.637-3.859,0.729C692.761,334.028,691.456,333.647,691.006,332.789z"
				/>
		</g>
		<g>
			<path fill="#31353E" d="M740.359,422.657c0.013-0.085,0.223-0.174,0.685-0.43c0.458-0.223,1.191-0.719,2.23-1.179
				c0.525-0.254,1.099-0.417,1.786-0.664c0.655-0.16,1.407-0.327,2.182-0.344c1.564-0.044,3.248,0.41,5.15,0.988
				c3.787,1.21,8.137,3.59,12.565,6.947c2.259,1.664,4.603,3.646,7.022,5.936c2.416,2.293,4.887,4.917,7.334,7.916
				c2.476,2.974,4.532,5.929,6.345,8.704c1.778,2.804,3.286,5.453,4.547,7.937c1.27,2.478,2.279,4.797,3.173,6.878
				c0.833,2.119,1.583,3.981,2.137,5.674c1.172,3.347,1.869,5.832,2.302,7.471c0.436,1.638,0.613,2.43,0.446,2.513
				c-0.167,0.082-0.704-0.54-1.755-1.846c-1.044-1.308-2.671-3.268-4.944-5.849c-2.262-2.587-5.201-5.775-8.862-9.509
				c-1.83-1.868-3.837-3.873-6.019-6.021c-2.22-2.116-4.555-4.426-7.156-6.806c-2.574-2.405-4.995-4.582-7.236-6.592
				c-2.243-2.007-4.306-3.852-6.195-5.542c-3.79-3.452-6.635-6.041-8.914-8.033c-1.126-1.029-2.154-1.797-2.96-2.705
				c-0.797-0.933-1.42-2.027-1.99-2.877c-0.566-0.847-1.027-1.588-1.37-1.929C740.527,422.9,740.346,422.742,740.359,422.657z"/>
		</g>
		<g>
			<path fill="#31353E" d="M641.693,428.536c0.763-0.199,1.616-0.024,2.529,0.503c0.921,0.527,1.853,1.412,2.967,2.613
				c1.067,1.213,2.273,2.749,3.641,4.637c1.341,1.89,2.936,4.122,4.699,6.768c1.793,2.647,3.833,5.705,6.094,9.309
				c2.252,3.609,4.745,7.767,7.198,12.732c2.453,4.957,4.732,10.899,6.29,17.38c1.574,6.5,2.482,13.615,2.691,21.169
				c0.201,7.559-0.329,14.468-1.062,20.767c-0.749,6.301-1.745,12-2.763,17.169c-2.003,10.307-4.281,18.787-7,25.102
				c-1.347,3.159-2.704,5.807-4.054,7.937c-1.326,2.142-2.577,3.792-3.625,5.045c-1.063,1.244-1.897,2.11-2.508,2.632
				c-0.591,0.537-0.909,0.768-0.98,0.704s0.109-0.421,0.534-1.084c0.444-0.647,1.083-1.641,1.891-3.004
				c0.794-1.37,1.729-3.129,2.659-5.344c0.954-2.203,1.837-4.893,2.632-8.046c1.616-6.317,2.483-14.552,2.885-24.857
				c0.215-5.137,0.341-10.731,0.197-16.748c-0.157-6.012-0.547-12.46-1.563-19.201c-1.023-6.738-2.498-12.791-4.303-18.151
				c-1.818-5.382-3.904-9.965-6.168-14.25c-2.268-4.283-4.567-8.243-6.595-11.967c-2.034-3.722-3.798-7.203-5.176-10.422
				c-1.362-3.243-2.381-6.161-2.976-8.78c-0.614-2.599-0.872-4.834-0.824-6.662c0.004-1.809,0.351-3.229,0.818-4.207
				C640.293,429.299,640.93,428.734,641.693,428.536z"/>
		</g>
		<g>
			<path fill="#31353E" d="M596.799,392.663c0,0.19-1.903,0.429-5.821,0.812c-1.952,0.276-4.409,0.631-7.359,1.16
				c-1.465,0.314-3.06,0.656-4.785,1.025c-1.715,0.402-3.535,0.954-5.491,1.476c-1.955,0.528-3.986,1.306-6.166,2.009
				c-2.161,0.775-4.412,1.711-6.788,2.67c-4.687,2.111-9.814,4.568-15.141,7.833c-10.64,6.477-22.446,15.555-33.683,28.349
				c-11.258,12.839-18.944,25.36-25.067,36.087c-3.081,5.363-5.628,10.389-8.016,14.878c-2.328,4.546-4.401,8.595-6.229,12.166
				c-1.855,3.577-3.498,6.676-5.014,9.279c-1.492,2.613-2.849,4.731-4.084,6.365c-2.423,3.286-4.407,4.615-5.833,4.129
				c-1.425-0.486-2.151-2.744-1.953-6.928c0.122-2.084,0.488-4.645,1.147-7.692c0.683-3.039,1.65-6.566,3.019-10.56
				c1.36-3.997,3.139-8.454,5.357-13.37c2.304-4.879,4.969-10.256,8.391-15.937c6.786-11.346,16.061-24.323,29.465-36.971
				c13.454-12.67,27.124-20.842,39.085-26.315c5.991-2.757,11.662-4.676,16.775-6.264c2.592-0.699,5.03-1.377,7.354-1.904
				c2.345-0.455,4.513-0.991,6.589-1.29c2.076-0.293,3.995-0.625,5.793-0.822c1.8-0.161,3.463-0.309,4.992-0.444
				c3.06-0.167,5.58-0.212,7.572-0.219C594.902,392.343,596.799,392.473,596.799,392.663z"/>
		</g>
	</g>
</g>
</svg>
