<?xml version="1.0" encoding="utf-8"?>
<!-- Designed by Vexels.com - 2019 All Rights Reserved - https://vexels.com/terms-and-conditions/  -->
<svg version="1.1" id="Layer_1" xmlns="http://www.w3.org/2000/svg" xmlns:xlink="http://www.w3.org/1999/xlink" x="0px" y="0px"
	 viewBox="0 0 1200 1200" enable-background="new 0 0 1200 1200" xml:space="preserve">
<g>
	<path fill="#146B71" d="M366.773,927.961c0,0-105.862-316.976,24.946-479.365l86.569,97.777c0,0-36.288-149.847,65.201-259.844
		c101.49-109.997,169.949-144.176,169.949-144.176l27.36,130.419c0,0,46.027-157.813,65.455-166.742
		c19.427-8.928,123.347-58.501,291.052-55.935c0,0,25.436,256.198-32.558,319.053l-143.703,73.286l144.277-1.148
		c0,0-29.419,223.488-203.655,318.953l-150.454,21.182l115.888,45.386C827.098,826.808,589.298,1020.269,366.773,927.961z"/>
	<g>
		<path fill="#40BDA8" d="M1085.028,50.065c-2.006,2.746-3.823,5.129-7.712,10.42c-23.134,31.48-85.399,115.508-168.965,222.778
			c-7.846-15.758-13.017-33.578-15.397-53.077c-4.788-39.167,2.57-78.588,9.587-104.764c3.996-14.924,8.296-27.193,11.197-34.856
			c1.646-4.34,3.011-7.661,3.867-9.682c0.46-1.094,0.823-1.928,1.08-2.503l5.146-11.293l-25.953,6.31
			c-5.854,14.784-16.404,47.48-22.004,80.311c-4.791,28.137-5.723,54.682-2.776,78.901c3.072,25.205,10.405,48.022,21.806,67.876
			c-61.941,79.185-123.269,155.358-182.378,226.527c-24.465-25.77-44.725-55.953-60.25-89.784
			c-24.155-52.629-32.708-105.26-35.629-140.147c-1.656-19.761-1.72-36.016-1.482-46.174c0.134-5.703,0.375-10.112,0.554-12.806
			c0.096-1.45,0.184-2.554,0.248-3.297l0.116-19.974l-20.198,18.769l-0.041-0.554c-0.195,1.98-4.363,47.923,6.587,109.599
			c6.529,36.727,17.183,71.356,31.665,102.925c16.778,36.567,38.824,69.153,65.555,96.908
			c-8.455,10.133-16.973,20.294-25.553,30.471C564.139,703.427,463.134,814.785,373.892,903.928
			c-108.605,108.514-200.467,184.755-273.038,226.604l-3.712,2.143l9.996,17.325l3.712-2.143
			c74.08-42.769,167.337-120.077,277.176-229.776c77.57-77.489,164.243-171.962,257.667-280.852
			c9.911,3.971,49.061,18.519,106.226,25.294c59.698,7.073,150.806,6.395,245.893-36.949l1.736-2.393l15.12-27.977l-25.152,12.169
			c-90.868,41.424-178.087,42.047-235.243,35.289c-32.384-3.834-58.744-10.391-75.153-15.218c-8.555-2.514-15.238-4.794-19.602-6.37
			c54.151-63.486,110.838-132.1,168.566-204.029c27.077-33.737,54.843-68.787,82.528-104.182l8.75-11.202
			c86.044-110.291,174.071-229.331,174.071-229.331l5.165-7.352l-1.429-14.822L1085.028,50.065z"/>
	</g>
</g>
</svg>
